<?xml version="1.0" encoding="UTF-8" standalone="no"?>
<svg width="363px" height="363px" viewBox="0 0 363 363" version="1.1" xmlns="http://www.w3.org/2000/svg" xmlns:xlink="http://www.w3.org/1999/xlink" xmlns:sketch="http://www.bohemiancoding.com/sketch/ns">
    <!-- Generator: Sketch 3.3.3 (12081) - http://www.bohemiancoding.com/sketch -->
    <title>Oval 1 Copy + monument41 (2) Copy@1x</title>
    <desc>Created with Sketch.</desc>
    <defs></defs>
    <g id="Page-1" stroke="none" stroke-width="1" fill="none" fill-rule="evenodd" sketch:type="MSPage">
        <g id="Oval-1-Copy-+-monument41-(2)-Copy" sketch:type="MSLayerGroup" transform="translate(3.000000, 3.000000)">
            <g id="Oval-1-Copy" stroke-width="5" stroke="#000000" fill="#FFFFFF" opacity="0.2" sketch:type="MSShapeGroup">
                <path d="M178.5,357 C277.082828,357 357,277.082828 357,178.5 C357,79.9171722 277.082828,0 178.5,0 C157.670215,0 137.673748,3.56785437 119.088384,10.1257766 C49.7132731,34.6050704 0,100.746957 0,178.5 C0,277.082828 79.9171722,357 178.5,357 Z"></path>
            </g>
            <g id="monument41-(2)" transform="translate(11.226027, 39.938356)" fill="#000000" sketch:type="MSShapeGroup">
                <g id="Group">
                    <g id="Shape" transform="translate(0.000000, 1.000000)">
                        <g>
                            <path d="M332.73987,105.076072 C332.73987,103.384126 331.370482,102.01234 329.681493,102.01234 L312.416959,102.01234 L312.416959,93.5824792 C317.975558,94.8324821 323.752066,95.4965462 329.681493,95.4965462 C331.370482,95.4965462 332.73987,94.1247599 332.73987,92.4328136 C332.73987,90.7408672 331.370482,89.3690809 329.681493,89.3690809 C289.616764,89.3690809 257.022884,56.7173504 257.022884,16.5832188 C257.022884,14.8912725 255.653496,13.5194862 253.964507,13.5194862 L251.083517,13.5194862 L251.083517,3.19853687 C251.083517,1.50659052 249.714129,0.134804236 248.025141,0.134804236 C246.336152,0.134804236 244.966764,1.50659052 244.966764,3.19853687 L244.966764,13.5202521 L242.086538,13.5202521 C240.39755,13.5202521 239.028162,14.8920384 239.028162,16.5839847 C239.028162,56.7181163 206.433517,89.3698469 166.369552,89.3698469 C126.305588,89.3698469 93.7109428,56.7181163 93.7109428,16.5839847 C93.7109428,14.8920384 92.3415548,13.5202521 90.6525665,13.5202521 L87.7723406,13.5202521 L87.7723406,3.19853687 C87.7723406,1.50659052 86.4029527,0.134804236 84.7139644,0.134804236 C83.0249761,0.134804236 81.6555881,1.50659052 81.6555881,3.19853687 L81.6555881,13.5202521 L78.7753622,13.5202521 C77.0863739,13.5202521 75.716986,14.8920384 75.716986,16.5839847 C75.716986,56.7181163 43.1223408,89.3698469 3.05837627,89.3698469 C1.36938798,89.3698469 4.34621409e-14,90.7416331 4.34621409e-14,92.4335795 C4.34621409e-14,94.1255258 1.36938798,95.4973121 3.05837627,95.4973121 C8.99086165,95.4973121 14.7696636,94.8324821 20.3305563,93.5817133 L20.3305563,102.013106 L3.05837627,102.013106 C1.36938798,102.013106 0,103.384892 0,105.076838 C0,106.768784 1.36938798,108.140571 3.05837627,108.140571 L75.716986,108.140571 L75.716986,114.651003 L3.05837627,114.651003 C1.36938798,114.651003 0,116.022789 0,117.714735 C0,119.406682 1.36938798,120.778468 3.05837627,120.778468 L75.716986,120.778468 L75.716986,160.760179 L73.5830039,160.760179 C71.8940156,160.760179 70.5246277,162.131965 70.5246277,163.823911 L70.5246277,185.782449 C67.7399761,185.842958 64.9369742,184.864095 62.7670562,182.828245 C56.2068391,176.67244 45.9291657,176.67244 39.368184,182.827479 C35.1522123,186.78429 28.5476487,186.782758 24.3324416,182.827479 C23.099916,181.67092 21.1647284,181.734492 20.0094268,182.969943 C18.8548897,184.204627 18.918351,186.14397 20.1508767,187.300529 C26.7110938,193.455567 36.9887672,193.454802 43.5497489,187.299763 C47.764956,183.344484 54.3695196,183.343718 58.5854913,187.300529 C65.146473,193.455567 75.4241464,193.454802 81.9843635,187.299763 C86.2003352,183.344484 92.8041342,183.343718 97.0193413,187.300529 C103.581088,193.455567 113.857996,193.454802 120.418214,187.299763 C124.634185,183.344484 131.237984,183.343718 135.453956,187.300529 C142.014938,193.455567 152.292611,193.454802 158.852064,187.299763 C163.067271,183.34525 169.671834,183.342952 173.887806,187.300529 C180.449552,193.454802 190.725697,193.455567 197.286678,187.299763 C201.50265,183.343718 208.106449,183.344484 212.322421,187.300529 C218.883402,193.455567 229.161076,193.454802 235.720528,187.299763 C239.937265,183.343718 246.541063,183.344484 250.756271,187.300529 C257.317252,193.455567 267.594926,193.454802 274.155143,187.299763 C278.371879,183.343718 284.975678,183.344484 289.190885,187.300529 C292.470994,190.378048 296.680849,191.916042 300.890704,191.916042 C305.099794,191.916042 309.309649,190.377282 312.589757,187.300529 C313.822283,186.143204 313.885744,184.204627 312.731207,182.969943 C311.57667,181.736024 309.641483,181.673218 308.408193,182.827479 C304.19375,186.78429 297.589951,186.783524 293.37245,182.828245 C286.812998,176.67244 276.533795,176.671674 269.973578,182.827479 C267.80366,184.864861 265.000658,185.84449 262.216006,185.783981 L262.216006,163.823911 C262.216006,162.131965 260.846618,160.760179 259.15763,160.760179 L257.022884,160.760179 L257.022884,120.778468 L329.681493,120.778468 C331.370482,120.778468 332.73987,119.406682 332.73987,117.714735 C332.73987,116.022789 331.370482,114.651003 329.681493,114.651003 L257.022884,114.651003 L257.022884,108.140571 L329.681493,108.140571 C329.681493,108.140571 332.73987,106.768019 332.73987,105.076072 Z M306.299442,102.01234 L292.085638,102.01234 L292.085638,85.9147224 C296.578393,88.3695382 301.334168,90.399261 306.299442,91.9479779 L306.299442,102.01234 L306.299442,102.01234 Z M285.96965,82.2007125 L285.96965,102.01234 L271.754317,102.01234 L271.754317,70.002461 C275.988639,74.6064852 280.759706,78.7065254 285.96965,82.2007125 L285.96965,82.2007125 Z M265.637565,62.4802315 L265.637565,102.01234 L257.022884,102.01234 L257.022884,47.0658267 C259.321253,52.5445465 262.220594,57.7107657 265.637565,62.4802315 L265.637565,62.4802315 Z M239.028162,114.650237 L93.7109428,114.650237 L93.7109428,108.139805 L239.028162,108.139805 L239.028162,114.650237 L239.028162,114.650237 Z M81.8337385,19.6469514 L87.5941902,19.6469514 L87.5941902,160.757115 L81.8337385,160.757115 L81.8337385,19.6469514 L81.8337385,19.6469514 Z M189.755427,102.01234 L189.755427,91.946446 C194.720701,90.3977292 199.476476,88.3672404 203.96923,85.9124246 L203.96923,102.01234 L189.755427,102.01234 L189.755427,102.01234 Z M183.638674,102.01234 L169.42487,102.01234 L169.42487,95.4314419 C174.287689,95.2445542 179.038112,94.616489 183.638674,93.5817133 L183.638674,102.01234 L183.638674,102.01234 Z M163.308118,102.01234 L149.10196,102.01234 L149.10196,93.5817133 C153.699464,94.616489 158.448358,95.2445542 163.308118,95.4314419 L163.308118,102.01234 L163.308118,102.01234 Z M142.985207,102.01234 L128.771404,102.01234 L128.771404,85.9124246 C133.264159,88.3672404 138.019934,90.3969632 142.985207,91.9472119 L142.985207,102.01234 L142.985207,102.01234 Z M245.144915,19.6469514 L250.905366,19.6469514 L250.905366,160.757115 L245.144915,160.757115 L245.144915,19.6469514 L245.144915,19.6469514 Z M239.028162,102.01234 L230.415775,102.01234 L230.415775,62.4764018 C233.831216,57.706936 236.729792,52.5430147 239.028162,47.0658267 L239.028162,102.01234 L239.028162,102.01234 Z M224.299022,69.9993973 L224.299022,102.013106 L210.085218,102.013106 L210.085218,82.1984147 C215.295162,78.7034617 220.065465,74.6034215 224.299022,69.9993973 L224.299022,69.9993973 Z M122.653887,82.1984147 L122.653887,102.01234 L108.439318,102.01234 L108.439318,69.9986314 C112.67364,74.6034215 117.444707,78.7042276 122.653887,82.1984147 L122.653887,82.1984147 Z M102.322566,62.4756359 L102.322566,102.01234 L93.7109428,102.01234 L93.7109428,47.0658267 C96.0093125,52.5430147 98.9078887,57.706936 102.322566,62.4756359 L102.322566,62.4756359 Z M60.9916688,69.9955676 L60.9916688,102.013106 L46.7778651,102.013106 L46.7778651,82.1961169 C51.9870445,78.700398 56.7581115,74.5995918 60.9916688,69.9955676 L60.9916688,69.9955676 Z M26.4473088,91.946446 C31.4125827,90.3969632 36.1683578,88.3664744 40.6611125,85.9108927 L40.6611125,102.01234 L26.4473088,102.01234 L26.4473088,91.946446 L26.4473088,91.946446 Z M67.1084214,102.01234 L67.1084214,62.4710403 C70.5223339,57.7031064 73.4193808,52.5407169 75.716986,47.0658267 L75.716986,102.01234 L67.1084214,102.01234 L67.1084214,102.01234 Z M77.802034,182.826713 C77.4342642,183.172149 77.0420275,183.476224 76.6406156,183.761152 L76.6406156,166.887644 L92.7888423,166.887644 L92.7888423,178.532892 C87.5582543,177.517264 81.9415463,178.944198 77.802034,182.826713 L77.802034,182.826713 Z M254.937836,182.827479 C250.799852,178.944198 245.18238,177.515733 239.951027,178.532892 L239.951027,166.887644 L256.098489,166.887644 L256.098489,183.761917 C255.697077,183.47699 255.305605,183.172915 254.937836,182.827479 L254.937836,182.827479 Z M233.834275,163.823911 L233.834275,181.032898 C233.03298,181.560626 232.259975,182.150394 231.538963,182.827479 C227.324521,186.78429 220.719957,186.783524 216.503221,182.828245 C209.944533,176.67244 199.66533,176.671674 193.104349,182.827479 C188.888377,186.78429 182.284578,186.781992 178.068606,182.828245 C171.509154,176.671674 161.230716,176.673206 154.670499,182.827479 C150.454527,186.78429 143.849963,186.781992 139.634756,182.828245 C133.075304,176.67244 122.796866,176.67244 116.235884,182.827479 C112.020677,186.782758 105.416113,186.782758 101.200142,182.828245 C100.479129,182.15116 99.7061249,181.562157 98.9055949,181.034429 L98.9055949,163.823911 C98.9055949,162.131965 97.5362069,160.760179 95.8472186,160.760179 L93.7109428,160.760179 L93.7109428,120.778468 L239.028162,120.778468 L239.028162,160.760179 L236.892651,160.760179 C235.203663,160.760179 233.834275,162.131965 233.834275,163.823911 Z"></path>
                        </g>
                    </g>
                    <path d="M293.685169,204.700343 C287.125717,198.543772 276.846514,198.544538 270.286297,204.699577 C266.071854,208.655621 259.468055,208.656387 255.250555,204.700343 C248.691867,198.543772 238.411899,198.544538 231.851682,204.699577 C227.63724,208.655621 221.032676,208.656387 216.81594,204.700343 C210.257252,198.543772 199.978049,198.544538 193.417068,204.699577 C189.201096,208.656387 182.597297,208.65409 178.381325,204.700343 C171.821873,198.543772 161.543435,198.54607 154.983218,204.699577 C150.767246,208.655621 144.162682,208.654855 139.947475,204.700343 C133.388023,198.544538 123.109585,198.545304 116.548603,204.699577 C112.333396,208.654855 105.728832,208.65409 101.512861,204.700343 C94.9534081,198.544538 84.6757347,198.545304 78.1139884,204.699577 C73.8987813,208.654855 67.2942177,208.65409 63.078246,204.700343 C56.5180289,198.544538 46.2403555,198.545304 39.6793738,204.699577 C35.4634021,208.655621 28.8588385,208.655621 24.6436314,204.699577 C23.4111058,203.543018 21.4759182,203.60659 20.3206165,204.84204 C19.1660795,206.076724 19.2295408,208.015301 20.4620665,209.172626 C27.0222836,215.326899 37.299957,215.327665 43.8609387,209.17186 C48.0761458,205.217347 54.6807094,205.21505 58.8966811,209.172626 C65.4576628,215.326899 75.7353362,215.327665 82.2955533,209.17186 C86.511525,205.215816 93.115324,205.216582 97.3305311,209.172626 C103.892277,215.326899 114.169186,215.327665 120.729403,209.17186 C124.945375,205.217347 131.549174,205.21505 135.765146,209.172626 C142.326127,215.326899 152.603801,215.327665 159.163253,209.17186 C163.37846,205.216582 169.983024,205.215816 174.198996,209.172626 C180.759977,215.326133 191.036122,215.328431 197.597868,209.17186 C201.81384,205.216582 208.417639,205.215816 212.63361,209.172626 C219.194592,215.327665 229.472266,215.326899 236.031718,209.17186 C240.248454,205.216582 246.852253,205.215816 251.06746,209.172626 C257.628442,215.327665 267.906116,215.326899 274.466333,209.17186 C278.683069,205.216582 285.286868,205.215816 289.502075,209.172626 C292.782184,212.24938 296.992038,213.78814 301.201893,213.78814 C305.410984,213.78814 309.620839,212.24938 312.900947,209.172626 C314.133473,208.015301 314.196934,206.076724 313.042397,204.84204 C311.890154,203.608122 309.954966,203.545315 308.720911,204.699577 C304.506469,208.655621 297.90267,208.656387 293.685169,204.700343 Z" id="Shape" stroke="#000000"></path>
                </g>
            </g>
        </g>
    </g>
</svg>