<?xml version="1.0" encoding="UTF-8" standalone="no"?>
<svg width="36px" height="36px" viewBox="0 0 36 36" version="1.1" xmlns="http://www.w3.org/2000/svg" xmlns:xlink="http://www.w3.org/1999/xlink" xmlns:sketch="http://www.bohemiancoding.com/sketch/ns">
    <!-- Generator: Sketch 3.3.3 (12081) - http://www.bohemiancoding.com/sketch -->
    <title>question58</title>
    <desc>Created with Sketch.</desc>
    <defs></defs>
    <g id="Page-1" stroke="none" stroke-width="1" fill="none" fill-rule="evenodd" sketch:type="MSPage">
        <g id="iPhone-6-Plus" sketch:type="MSArtboardGroup" transform="translate(-189.000000, -201.000000)" fill="#497FC8">
            <g id="question58" sketch:type="MSLayerGroup" transform="translate(189.000000, 201.000000)">
                <path d="M17.5687742,0.384510638 C7.73535484,0.514723404 -0.128903226,8.50787234 0.00193548387,18.2370638 C0.133548387,27.9620426 8.21187097,35.7449362 18.0449032,35.6154894 C27.8763871,35.4845106 35.7421935,27.4913617 35.6113548,17.7629362 C35.4797419,8.03719149 27.4010323,0.254680851 17.5687742,0.384510638 L17.5687742,0.384510638 Z M17.516129,28.7234043 L17.4178065,28.7218723 C15.9034839,28.6774468 14.835871,27.5737021 14.8788387,26.0977021 C14.9210323,24.6469787 16.0145806,23.5937872 17.4789677,23.5937872 L17.5668387,23.5953191 C19.1233548,23.6408936 20.1789677,24.7335319 20.1352258,26.2520426 C20.091871,27.7069787 19.0153548,28.7234043 17.516129,28.7234043 L17.516129,28.7234043 Z M23.8858065,16.2157021 C23.5296774,16.7162553 22.7465806,17.3378298 21.759871,18.0984255 L20.6732903,18.8406383 C20.0767742,19.2994468 19.7167742,19.7310638 19.5816774,20.1557872 C19.4752258,20.4901277 19.4229677,20.5785957 19.4136774,21.258766 L19.412129,21.4314894 L15.2632258,21.4314894 L15.2752258,21.0841277 C15.3259355,19.656383 15.3615484,18.8165106 15.9596129,18.1225532 C16.8979355,17.0325957 18.9677419,15.714 19.0556129,15.6580851 C19.352129,15.4371064 19.6021935,15.1854894 19.7883871,14.9166383 C20.223871,14.3226383 20.4166452,13.8550213 20.4166452,13.3954468 C20.4166452,12.7577872 20.2254194,12.168 19.8472258,11.6429362 C19.4837419,11.1362553 18.7931613,10.8796596 17.7944516,10.8796596 C16.803871,10.8796596 16.1256774,11.1906383 15.72,11.8286809 C15.3027097,12.4847234 15.0917419,13.1737021 15.0917419,13.877617 L15.0917419,14.0526383 L10.8139355,14.0526383 L10.8216774,13.8699574 C10.932,11.2775745 11.8672258,9.41093617 13.6002581,8.32174468 C14.6891613,7.62817021 16.044,7.27659574 17.6249032,7.27659574 C19.6943226,7.27659574 21.4412903,7.77408511 22.8166452,8.7552766 C24.2101935,9.74948936 24.9170323,11.2385106 24.9170323,13.1809787 C24.9170323,14.2674894 24.5701935,15.2881277 23.8858065,16.2157021 L23.8858065,16.2157021 Z" id="Shape" sketch:type="MSShapeGroup"></path>
            </g>
        </g>
    </g>
</svg>