<?xml version="1.0" encoding="UTF-8" standalone="no"?>
<svg width="37px" height="37px" viewBox="0 0 37 37" version="1.1" xmlns="http://www.w3.org/2000/svg" xmlns:xlink="http://www.w3.org/1999/xlink" xmlns:sketch="http://www.bohemiancoding.com/sketch/ns">
    <!-- Generator: Sketch 3.3.3 (12081) - http://www.bohemiancoding.com/sketch -->
    <title>Shape</title>
    <desc>Created with Sketch.</desc>
    <defs></defs>
    <g id="Page-1" stroke="none" stroke-width="1" fill="none" fill-rule="evenodd" sketch:type="MSPage">
        <g id="Desktop-HD" sketch:type="MSArtboardGroup" transform="translate(-1346.000000, -534.000000)" fill="#DA4244">
            <g id="black406" sketch:type="MSLayerGroup" transform="translate(1346.000000, 534.000000)">
                <path d="M36.619407,7.98210816 C36.4309264,7.23017755 35.4917771,6.96845918 34.9429059,7.51658776 L30.4852761,11.9651959 C29.4953558,12.9526429 27.8906605,12.9526429 26.9008916,11.9651959 L24.8556769,9.92407959 C23.8658323,8.93633061 23.8658323,7.3349102 24.8556769,6.3470102 L29.2590552,1.95254286 C29.8119366,1.4007898 29.5428732,0.454571429 28.7819141,0.276744898 C27.7398609,0.0337530612 26.6385624,-0.0559530612 25.5026851,0.0345081633 C20.6206524,0.423234694 16.1273088,4.99167755 15.8234397,9.87001429 C15.7083538,11.7202408 16.0829693,13.4693592 16.8129059,15.0187531 L1.2297771,28.3826245 C0.528895706,28.9836857 0.109184049,29.847598 0.0703680982,30.768898 C0.0310981595,31.690198 0.376204499,32.5862776 1.02366667,33.2441224 L3.66451329,35.9278306 C4.31825562,36.5924714 5.22093456,36.9537122 6.15380368,36.9238102 C7.08674847,36.8936816 7.96430675,36.4755816 8.57401227,35.7706939 L22.0716728,20.1639429 C23.5786851,20.8351531 25.2654765,21.1775918 27.0463947,21.0667429 C31.9676973,20.7603224 36.5463906,16.2401306 36.9047382,11.3327224 C36.9896339,10.1701673 36.8851411,9.04438571 36.619407,7.98210816 L36.619407,7.98210816 Z" id="Shape" sketch:type="MSShapeGroup"></path>
            </g>
        </g>
    </g>
</svg>